C:\GBW_MyPrograms\KinderuniversiteitApp\Resultaten\Ellis\Maui\Maui_v1.mot
version=1
nRows=14
nColumns=29
inDegrees=yes
endheader
                time	         pelvis_tilt	           pelvis_tx	           pelvis_ty	       hip_flexion_l	       hip_flexion_r	        knee_angle_l	        knee_angle_r	       ankle_angle_l	       ankle_angle_r	    lumbar_extension	hamstrings_r/activation	bifemsh_r/activation	glut_max_r/activation	iliopsoas_r/activation	rect_fem_r/activation	  vasti_r/activation	gastroc_r/activation	 soleus_r/activation	tib_ant_r/activation	hamstrings_l/activation	bifemsh_l/activation	glut_max_l/activation	iliopsoas_l/activation	rect_fem_l/activation	  vasti_l/activation	gastroc_l/activation	 soleus_l/activation	tib_ant_l/activation	
          0.88014270	          2.90335233	          1.08684569	          0.93221170	        -25.35206191	          4.87431538	         -1.48610763	          4.76925610	        -19.01809045	         -7.45834188	        -12.61318473	          0.13582496	          0.19022266	          0.06376410	          0.05007444	          0.08644796	          0.18381251	          0.10838134	          0.05046253	          0.17439798	          0.05000001	          0.06991403	          0.05000000	          0.28738837	          0.12983009	          0.05000000	          0.12845864	          0.19222220	          0.05000000	
          0.88894413	          2.67753669	          1.10068332	          0.93062564	        -25.00879548	          4.64055270	         -2.99069435	          4.72356536	        -19.98352437	         -7.44343795	        -12.03207955	          0.13654972	          0.22086001	          0.07692338	          0.05148940	          0.07538911	          0.16029829	          0.11095679	          0.05000000	          0.18275000	          0.05000001	          0.06097031	          0.05000000	          0.27436935	          0.15590415	          0.05000000	          0.11202556	          0.18987674	          0.05000000	
          0.89774556	          2.44061746	          1.11498824	          0.92917750	        -24.65160052	          4.28600527	         -4.49565674	          4.21581552	        -21.11462824	         -7.18783461	        -11.37837103	          0.13197065	          0.24374872	          0.07999161	          0.05000000	          0.06574495	          0.13979212	          0.11835126	          0.05000003	          0.17450343	          0.05000001	          0.05317070	          0.06832589	          0.25491883	          0.15731880	          0.05733452	          0.09769468	          0.16558675	          0.06962795	
          0.90654698	          2.19717852	          1.12967648	          0.92782080	        -24.36735119	          3.73754016	         -5.89150101	          3.84242747	        -22.17688086	         -6.62687357	        -10.66672974	          0.12354109	          0.27098047	          0.07708937	          0.05000000	          0.05733452	          0.12190920	          0.12660178	          0.05000001	          0.16295842	          0.05450872	          0.06154722	          0.11728508	          0.24536591	          0.13719379	          0.05000000	          0.08519709	          0.14440406	          0.10957277	
          0.91534841	          1.94798805	          1.14442916	          0.92661631	        -24.14026663	          3.02622054	         -7.18500981	          3.78871090	        -22.78591954	         -6.01382689	         -9.93884479	          0.11639788	          0.31069368	          0.06722771	          0.05000000	          0.05000000	          0.10631396	          0.13920916	          0.06056536	          0.15064454	          0.05093569	          0.06034211	          0.15310475	          0.23490199	          0.18938155	          0.05733451	          0.07429825	          0.13151397	          0.09999215	
          0.92414984	          1.69436503	          1.15902665	          0.92572935	        -24.08946724	          2.22641347	         -7.87416292	          3.95242328	        -22.63883695	         -5.56735125	         -9.22464121	          0.10990711	          0.35447830	          0.06194505	          0.05000000	          0.05000000	          0.09271374	          0.15142290	          0.07105276	          0.14263255	          0.06635078	          0.09024361	          0.18362783	          0.23065204	          0.16515493	          0.05000000	          0.06479364	          0.11469004	          0.12379390	
          0.93295126	          1.43996455	          1.17332020	          0.92536757	        -24.17915373	          1.41208019	         -7.98765041	          4.20357140	        -22.09470163	         -5.29004645	         -8.54754210	          0.10378842	          0.39885588	          0.06089645	          0.05000000	          0.05000000	          0.08085333	          0.16244601	          0.07875883	          0.13803662	          0.07598871	          0.11200227	          0.20248374	          0.22505162	          0.18930148	          0.05000000	          0.05650491	          0.10001831	          0.11897893	
          0.94175269	          1.19018494	          1.18720807	          0.92559346	        -24.31856467	          0.65564840	         -7.78418775	          4.40407131	        -21.45097108	         -5.14760938	         -7.92603052	          0.09854564	          0.43614433	          0.06367560	          0.05000000	          0.05000000	          0.07051017	          0.17128849	          0.08639775	          0.13575875	          0.08605228	          0.13089978	          0.21606251	          0.22862609	          0.18929458	          0.05000001	          0.05141933	          0.08722346	          0.11655512	
          0.95055412	          0.95160698	          1.20065927	          0.92635537	        -24.47687491	          0.01030678	         -7.35665304	          4.44149075	        -20.75644036	         -5.09618486	         -7.37044024	          0.09359464	          0.46033960	          0.06817818	          0.05000000	          0.05000000	          0.06149016	          0.17763930	          0.09401160	          0.13034465	          0.09553233	          0.14682021	          0.22568616	          0.23575672	          0.18746287	          0.05000001	          0.05000000	          0.07606539	          0.11487628	
          0.95935555	          0.73097085	          1.21366380	          0.92757488	        -24.61803493	         -0.50124970	         -6.81496007	          4.26436221	        -20.08230347	         -5.13408111	         -6.88876836	          0.08926269	          0.47101749	          0.06990432	          0.05000000	          0.05000001	          0.05362408	          0.18045659	          0.10045384	          0.11367031	          0.10424649	          0.12804785	          0.23097045	          0.24185662	          0.18277091	          0.05000001	          0.05000000	          0.06633473	          0.11353158	
          0.96815697	          0.53370899	          1.22624099	          0.92918619	        -24.73332578	         -0.89666257	         -6.19171454	          3.90276196	        -19.41914584	         -5.30730202	         -6.48400087	          0.08572788	          0.47081788	          0.07045920	          0.05000001	          0.05000001	          0.05000005	          0.17918942	          0.10514263	          0.09912903	          0.11294747	          0.11344632	          0.23489545	          0.24765400	          0.17700708	          0.05000000	          0.05000000	          0.05784885	          0.11190042	
          0.97695840	          0.36350248	          1.23842344	          0.93114230	        -24.81999867	         -1.22050252	         -5.48869843	          3.43299970	        -18.73313144	         -5.63001983	         -6.15565432	          0.08297990	          0.46493802	          0.06942343	          0.05000001	          0.05000001	          0.05000002	          0.17456241	          0.10767617	          0.08644794	          0.12148293	          0.10314315	          0.23840550	          0.25250495	          0.17001435	          0.05000000	          0.05000004	          0.05131105	          0.11063373	
          0.98575983	          0.22300475	          1.25024187	          0.93340877	        -24.86550190	         -1.51861303	         -4.72276433	          2.93173072	        -18.07691060	         -6.10250623	         -5.90256079	          0.08036146	          0.45889888	          0.06714766	          0.05000007	          0.05000002	          0.05000004	          0.16763887	          0.10764389	          0.07538908	          0.13005218	          0.09044869	          0.24087585	          0.25715397	          0.16272265	          0.05000000	          0.05000000	          0.05000000	          0.11195155	
          0.99456125	          0.11354321	          1.26171948	          0.93596001	        -24.85436690	         -1.81730751	         -3.92228516	          2.43962474	        -17.49117871	         -6.71324900	         -5.72322486	          0.07874747	          0.45562554	          0.06422638	          0.05000002	          0.05000001	          0.05000002	          0.15912563	          0.10526663	          0.06574493	          0.11367036	          0.07887813	          0.24519089	          0.25910626	          0.15522629	          0.05000000	          0.05000000	          0.05000000	          0.11397134	
